PathFileType	4	(X/Y/Z)	Patient4_TMGait_0pt2_01_left_03.trc.trc
DataRate	CameraRate	NumFrames	NumMarkers	Units	OrigDataRate	OrigDataStartFrame	OrigNumFrames
41.176470588235	41.176470588235	5	33	mm	41.176470588235	89	       141
Frame#	Time	Sacral			L.Shoulder			Chest			R.Shoulder			Neck			R.ASIS			L.ASIS			R.Thigh.Superior			R.Thigh.Lateral			R.Thigh.Inferior			R.Patella			L.Thigh.Superior			L.Thigh.Lateral			L.Thigh.Inferior			L.Patella			L.Shank.Superior			L.Shank.Lateral			L.Shank.Inferior			R.Shank.Superior			R.Shank.Lateral			R.Shank.Inferior			R.Heel			R.Midfoot.Superior			R.Midfoot.Lateral			R.Toe			L.Heel			L.Midfoot.Lateral			L.Midfoot.Superior			L.Toe			L.Elbow			L.Wrist			R.Elbow			R.Wrist			
		X1	Y1	Z1	X2	Y2	Z2	X3	Y3	Z3	X4	Y4	Z4	X5	Y5	Z5	X6	Y6	Z6	X7	Y7	Z7	X8	Y8	Z8	X9	Y9	Z9	X10	Y10	Z10	X11	Y11	Z11	X12	Y12	Z12	X13	Y13	Z13	X14	Y14	Z14	X15	Y15	Z15	X16	Y16	Z16	X17	Y17	Z17	X18	Y18	Z18	X19	Y19	Z19	X20	Y20	Z20	X21	Y21	Z21	X22	Y22	Z22	X23	Y23	Z23	X24	Y24	Z24	X25	Y25	Z25	X26	Y26	Z26	X27	Y27	Z27	X28	Y28	Z28	X29	Y29	Z29	X30	Y30	Z30	X31	Y31	Z31	X32	Y32	Z32	X33	Y33	Z33	

89	7.807142857143	847.159645969462	1001.349203574761	521.585798705373	1033.485527360743	1425.307097854329	346.491599522051	1124.921775546839	1363.672229307824	516.727410382613	1025.935813362972	1438.877127931975	681.501967613955	1003.537596093011	1490.481676923182	505.484235324786	1071.649841466998	942.011186782317	653.721203578988	1071.292913471411	952.907453828698	378.426224998828	1125.583187281278	746.120991730134	616.520940821741	1056.155591918331	628.185779313792	675.762624895573	1136.527746112870	583.171885109116	593.884009158555	1144.520989596131	491.794806505213	599.636084272181	1068.959299110484	722.446220870510	396.970085458817	954.081306187826	632.022212997012	322.884576214575	1014.708669451288	533.333719700426	378.773424562087	996.430196824407	461.897233466394	380.958667436953	946.114281053459	403.309699648240	366.666195913409	824.430229328458	328.845631840320	306.937122718058	838.648676975369	199.628530274600	364.064217370153	1110.685791628283	402.023203449809	603.795695545825	1036.137304252952	301.167449801319	667.653128838171	1069.078451427314	205.583895368680	601.244335528460	922.799476818588	45.644049163761	578.403041232885	1097.489578454884	97.291756730017	606.341681908173	1009.385061153481	38.415919246677	648.570539775416	1217.084837433064	41.289697683479	629.558312692649	670.259586757393	75.636556360098	388.040959091615	745.302143393463	57.788861807245	311.500124696061	837.792517641700	104.023807700023	340.357796820480	953.461239176140	36.880846642160	315.810422614446	1120.805726106901	1109.315489234412	190.338510129768	1371.434380568429	1033.643846572799	204.720140544643	947.896895242818	1111.647462865115	822.739472202861	1024.605744738286	863.368539286395	855.461103258021	
90	7.831428571429	849.154026856296	1001.159818074817	528.360076896835	1032.244888283949	1425.345939237499	351.065452591682	1125.568453350299	1364.383869624064	520.523620370067	1027.930424692236	1439.434370716711	686.173636702816	1003.788823024238	1490.807109324335	510.107969947866	1074.766330740362	942.331948828622	658.765655456347	1072.368247157974	953.454221330783	383.386918286788	1127.215289528823	745.419338439446	621.123087662145	1056.547631132115	627.622805681975	679.665083844909	1136.463560294463	582.401629605082	597.590631658807	1143.529406494990	490.742066331036	602.709145773719	1072.586422467196	723.357113113403	401.138894905241	958.752077184427	631.980653936596	327.177358284234	1021.207472349088	533.368083703292	381.930604206972	1003.435544590422	460.713523002865	383.140441135486	950.871544287928	403.027537895422	368.951460851264	827.100959182341	331.803637894041	309.445482387139	839.086204690444	201.695996242225	364.875686050128	1108.828148055457	401.233743642913	606.254552801755	1033.348689366540	300.559320775541	669.366889045603	1065.546091008029	205.203588750265	602.357693499943	918.225001258821	45.512080632939	578.606873520441	1092.982508722741	97.325036018756	606.587734291517	1004.885477120119	38.288618440881	648.712669562180	1212.596811772059	41.256539556833	629.607216093177	667.829996821466	82.013214866434	388.370236712179	742.151317154315	61.821354631952	311.745801697593	836.052299494284	105.264295548020	340.331911968075	949.146718422450	36.611316988730	315.853538148136	1111.151149496133	1104.317773297944	197.939592624055	1356.168376173969	1012.297631999228	210.275166184981	960.412423464166	1111.707206762412	832.305099012985	1050.047678382578	867.981911970319	866.014154989151	
91	7.855714285714	850.853505266595	1000.961609219413	534.749685772086	1030.662128365255	1425.400610982675	355.400898326800	1125.858469056796	1365.095147168446	524.058860455491	1029.590941285171	1439.979732488598	690.594319051417	1003.707459251662	1491.129213061188	514.493586206664	1077.487672041732	942.635461404509	663.474225307273	1073.186002129421	954.050283594522	388.056685755450	1128.405150191972	744.734904376608	625.412426440175	1056.442782771262	627.075051663112	683.252664253861	1135.885931913909	581.654813724580	601.005386349874	1141.959659281621	489.773939243660	605.489317331464	1076.343933265171	724.335303443320	405.117315881454	963.883695362922	631.792927865335	331.191876876814	1028.204323744551	533.404866067426	385.049294294826	1010.955025191431	459.516915835981	385.222059976963	956.163345028666	402.725313535634	371.122755857508	830.405083215991	334.846398671189	311.805166906524	839.929111625268	203.928969873125	365.597757762944	1106.549995528559	400.533386813678	608.488520017805	1030.294040190795	300.004007273984	670.884270842815	1061.864014494552	204.899611122859	603.348077702395	913.679462270504	45.468377538334	578.773638543672	1088.492306378653	97.367365673689	606.796209660206	1000.405083129737	38.217763517097	648.819503792581	1208.095011836977	41.245053847915	629.642811217208	665.776113989987	88.993482676626	388.660526599543	739.219395056803	66.264921115022	311.953638706910	834.548278357522	106.608111972811	340.249120720686	944.761342807216	36.300785869491	315.900321279168	1100.442452382591	1099.387046692014	205.611427621184	1337.836790218001	989.843297498608	215.592956038629	973.478143357891	1111.902698172959	841.363492240396	1076.327213112247	873.566965720100	875.693088696647	
92	7.880000000000	852.322936469050	1000.746475785468	540.798037609878	1028.732608434729	1425.474260862907	359.507999477390	1125.791087475039	1365.828250984991	527.347923437787	1030.905040937323	1440.526313959651	694.773584566051	1003.266118799469	1491.447964601132	518.642063337441	1079.890796739000	942.930796149456	667.860066896259	1073.776188094572	954.701989243591	392.460561083199	1129.288293302439	744.097036574833	629.343849402553	1056.042898205260	626.553985359356	686.511078964998	1134.966090616668	580.949582623755	604.082792863187	1140.025310585156	488.884378430220	607.930337875094	1080.181301551784	725.391218071358	408.889929468741	969.379474182589	631.549490888630	334.894160587706	1035.561106836100	533.503408731654	388.100185389974	1018.833311837778	458.395453655042	387.169332421753	961.878901399219	402.479461589759	373.143799204373	834.241759200261	338.044478246010	314.001452768129	841.124837285231	206.400722711400	366.214426676896	1104.012411902448	399.912801872724	610.450592230552	1027.108787538999	299.518565433813	672.186408540437	1058.080103230064	204.661611684317	604.174603037097	909.108286891426	45.543858548761	578.894073875538	1083.986269989196	97.411350109709	606.949765113923	995.888533048889	38.219858671548	648.880151457455	1203.539283335859	41.199668131379	629.667479535565	664.125085071955	96.654728124665	388.944026271172	736.501824729836	71.199747190294	312.150717597488	833.245323284808	108.124290808504	340.115242684279	940.253248502975	35.916626882865	315.946278259375	1088.735698886351	1094.626980994261	213.370622553880	1316.267851407945	966.762485005376	220.702352465374	987.000959579890	1112.279545161387	849.809440726957	1103.191128436982	880.215355823785	884.380272292605	
93	7.904285714286	853.610947858573	1000.502015000947	546.562248044370	1026.463953083621	1425.548029272047	363.395089705632	1125.380589564304	1366.583047176730	530.402070469614	1031.886152815342	1441.081432376228	698.715896721538	1002.457227733039	1491.749695663309	522.546639723380	1082.036794401227	943.206241894178	671.945084837139	1074.139318524085	955.396782864013	396.630346229521	1129.977793651498	743.515297198703	632.897859503992	1055.522958135294	626.058073589582	689.451296086528	1133.858090909827	580.291272267921	606.807110529874	1137.922911469189	488.058137728634	610.022923991457	1084.055486454912	726.541069993283	412.463185983507	975.172716568779	631.324776454152	338.272237567028	1043.190645881595	533.717971957401	391.070716817230	1026.982006712504	457.417629797199	388.961693655017	967.955313551358	402.346045228404	374.999944169709	838.537303909273	341.466504389866	316.055644915415	842.638277616167	209.185645016511	366.749432659639	1101.361861398612	399.353173925745	612.127873548719	1023.909881702605	299.105197842286	673.285392212503	1054.244808960127	204.474342526737	604.827142197575	904.481072690947	45.745382895616	578.969364607780	1079.448654928614	97.455581985643	607.047473651625	991.306476164092	38.295824079824	648.894571227822	1198.912834219435	41.091312485700	629.684139453452	662.912036235229	105.077893521238	389.304858728938	733.997523060400	76.728340547869	312.403806578560	832.113864388565	109.909556374842	339.968400232544	935.577986509278	35.430229619139	315.990130079908	1076.102993533607	1090.126626641794	221.214735929953	1291.418983955115	943.600614656503	225.651732547874	1000.862637085015	1112.888933567493	857.557349874811	1130.380486840403	888.016802030034	891.974757145879	
